# xmcd
#
# Track frame offsets:
# 150
# 22300
# 45857
# 74567
# 93722
# 118595
# 148076
# 175321
# 194344
# 216136
#
# Disc length: 3168 seconds
#
#
# Revision: 0
# Processed by: cddbd v1.5.1PL2 Copyright (c) Steve Scherf et al.
# Submitted via: FreeRIP 2.944 
#
DISCID=990c5e0a
DTITLE=The Robert Cray Band - Some Rainy Morning
DYEAR=1995
DGENRE=Blues
TTITLE0=Moan
TTITLE1=I'll Go On
TTITLE2=Steppin' Out
TTITLE3=Never Mattered Much
TTITLE4=Tell The Landlord
TTITLE5=Little Boy Big
TTITLE6=Enough For Me
TTITLE7=Jealous Love
TTITLE8=Will You Think Of Me
TTITLE9=Holdin' On
EXTD=
EXTT0=
EXTT1=
EXTT2=
EXTT3=
EXTT4=
EXTT5=
EXTT6=
EXTT7=
EXTT8=
EXTT9=
PLAYORDER=
